<mxfile host="Electron" modified="2024-06-13T15:26:07.869Z" cl_sdt_agent="5.0 (Windows NT 10.0; Win64; x64) AppleWebKit/537.36 (KHTML, like Gecko) draw.io/16.5.1 Chrome/96.0.4664.110 Electron/16.0.7 Safari/537.36" etag="B2eGF4z04XT7M2aVOx1Z" agent="Mozilla/5.0 (X11; Linux x86_64) AppleWebKit/537.36 (KHTML, like Gecko) draw.io/23.1.5 Chrome/120.0.6099.109 Electron/28.1.0 Safari/537.36" version="23.1.5" type="device" pages="4">
  <diagram id="TVcfra7uRYQmYn7SAoBt" name="sdt_uvc_schematic_v0">
    <mxGraphModel dx="1629" dy="1027" grid="1" gridSize="10" guides="1" tooltips="1" connect="1" arrows="1" fold="1" page="1" pageScale="1" pageWidth="1169" pageHeight="827" math="0" shadow="0">
      <root>
        <mxCell id="0" />
        <mxCell id="1" parent="0" />
        <mxCell id="HQ9hSFymCakxn4Syxnr7-1" value="" style="rounded=0;whiteSpace=wrap;html=1;fillColor=#fad7ac;strokeColor=#b46504;" parent="1" vertex="1">
          <mxGeometry x="283" y="220" width="440" height="339" as="geometry" />
        </mxCell>
        <mxCell id="HQ9hSFymCakxn4Syxnr7-2" value="&lt;div style=&quot;text-align: center&quot;&gt;&lt;span style=&quot;font-weight: normal ; font-size: 15px&quot;&gt;SDT Agent&lt;/span&gt;&lt;/div&gt;&lt;span style=&quot;font-size: 11px&quot;&gt;&lt;div style=&quot;text-align: center&quot;&gt;&lt;span style=&quot;font-weight: normal&quot;&gt;(uvm_agent)&lt;/span&gt;&lt;/div&gt;&lt;span&gt;&lt;div style=&quot;text-align: center&quot;&gt;&lt;span style=&quot;font-weight: normal&quot;&gt;(cl_sdt_agent)&lt;/span&gt;&lt;/div&gt;&lt;/span&gt;&lt;/span&gt;" style="text;html=1;strokeColor=none;fillColor=none;align=left;verticalAlign=middle;whiteSpace=wrap;rounded=0;fontStyle=1" parent="1" vertex="1">
          <mxGeometry x="290" y="230" width="94" height="30" as="geometry" />
        </mxCell>
        <mxCell id="HQ9hSFymCakxn4Syxnr7-3" style="edgeStyle=orthogonalEdgeStyle;rounded=0;orthogonalLoop=1;jettySize=auto;html=1;exitX=1.05;exitY=0.496;exitDx=0;exitDy=0;entryX=0;entryY=0.5;entryDx=0;entryDy=0;fontSize=15;startArrow=oval;startFill=0;endArrow=box;endFill=0;startSize=15;endSize=15;exitPerimeter=0;labelBackgroundColor=#FFFFFF;labelBorderColor=none;strokeColor=#000000;" parent="1" source="HQ9hSFymCakxn4Syxnr7-4" target="HQ9hSFymCakxn4Syxnr7-7" edge="1">
          <mxGeometry relative="1" as="geometry" />
        </mxCell>
        <mxCell id="HQ9hSFymCakxn4Syxnr7-4" value="Agent Sequencer &lt;font style=&quot;font-size: 11px&quot;&gt;(uvm_sequencer)&lt;br&gt;(cl_sdt_sequencer)&lt;/font&gt;" style="rounded=0;whiteSpace=wrap;html=1;fontSize=15;fillColor=#e1d5e7;strokeColor=#9673a6;" parent="1" vertex="1">
          <mxGeometry x="303" y="420" width="140" height="100" as="geometry" />
        </mxCell>
        <mxCell id="HQ9hSFymCakxn4Syxnr7-5" value="Agent Configuration &lt;font style=&quot;font-size: 11px&quot;&gt;(uvm_object)&lt;br&gt;&amp;nbsp;(cl_sdt_config)&lt;/font&gt;" style="rounded=0;whiteSpace=wrap;html=1;fontSize=15;fillColor=#d5e8d4;strokeColor=#82b366;" parent="1" vertex="1">
          <mxGeometry x="299.5" y="300" width="147" height="85" as="geometry" />
        </mxCell>
        <mxCell id="HQ9hSFymCakxn4Syxnr7-6" style="edgeStyle=orthogonalEdgeStyle;rounded=0;orthogonalLoop=1;jettySize=auto;html=1;exitX=1;exitY=0.5;exitDx=0;exitDy=0;fontSize=15;startArrow=classic;startFill=1;endArrow=classic;endFill=1;startSize=10;endSize=10;entryX=0;entryY=0.75;entryDx=0;entryDy=0;" parent="1" target="HQ9hSFymCakxn4Syxnr7-14" edge="1">
          <mxGeometry relative="1" as="geometry">
            <mxPoint x="653" y="469.9999999999998" as="sourcePoint" />
            <mxPoint x="732.8199999999999" y="470.2049999999999" as="targetPoint" />
            <Array as="points" />
          </mxGeometry>
        </mxCell>
        <mxCell id="HQ9hSFymCakxn4Syxnr7-7" value="Agent Driver &lt;font style=&quot;font-size: 11px&quot;&gt;(uvm_driver)&lt;br&gt;(cl_sdt_driver)&lt;/font&gt;" style="rounded=0;whiteSpace=wrap;html=1;fontSize=15;fillColor=#e1d5e7;strokeColor=#9673a6;" parent="1" vertex="1">
          <mxGeometry x="513" y="420" width="140" height="100" as="geometry" />
        </mxCell>
        <mxCell id="HQ9hSFymCakxn4Syxnr7-8" style="rounded=0;orthogonalLoop=1;jettySize=auto;html=1;exitX=0.5;exitY=0;exitDx=0;exitDy=0;fontSize=15;startArrow=diamond;startFill=0;startSize=15;endSize=15;endArrow=none;endFill=0;fillColor=#f8cecc;strokeColor=#000000;" parent="1" source="HQ9hSFymCakxn4Syxnr7-9" edge="1">
          <mxGeometry relative="1" as="geometry">
            <mxPoint x="557" y="220" as="targetPoint" />
          </mxGeometry>
        </mxCell>
        <mxCell id="HQ9hSFymCakxn4Syxnr7-9" value="Agent Monitor &lt;font style=&quot;font-size: 11px&quot;&gt;(uvm_monitor)&lt;br&gt;(cl_sdt_monitor)&lt;/font&gt;" style="rounded=0;whiteSpace=wrap;html=1;fontSize=15;strokeColor=#9673a6;fillColor=#e1d5e7;" parent="1" vertex="1">
          <mxGeometry x="480" y="250" width="153" height="68" as="geometry" />
        </mxCell>
        <mxCell id="HQ9hSFymCakxn4Syxnr7-10" value="" style="endArrow=none;html=1;rounded=0;fontSize=15;startArrow=diamond;startFill=0;endSize=15;startSize=15;fillColor=#f8cecc;strokeColor=#000000;" parent="1" edge="1">
          <mxGeometry width="50" height="50" relative="1" as="geometry">
            <mxPoint x="556" y="220" as="sourcePoint" />
            <mxPoint x="556" y="180" as="targetPoint" />
          </mxGeometry>
        </mxCell>
        <mxCell id="HQ9hSFymCakxn4Syxnr7-11" value="Agent Coverage &lt;font style=&quot;font-size: 11px&quot;&gt;(uvm_subscriber)&lt;br&gt;(cl_sdt_coverage)&lt;/font&gt;" style="rounded=0;whiteSpace=wrap;html=1;fontSize=15;strokeColor=#9673a6;fillColor=#e1d5e7;" parent="1" vertex="1">
          <mxGeometry x="480" y="330" width="153" height="70" as="geometry" />
        </mxCell>
        <mxCell id="HQ9hSFymCakxn4Syxnr7-12" value="DUT" style="rounded=0;whiteSpace=wrap;html=1;fontSize=15;strokeColor=#10739e;fillColor=#b1ddf0;" parent="1" vertex="1">
          <mxGeometry x="807" y="300" width="120" height="130" as="geometry" />
        </mxCell>
        <mxCell id="HQ9hSFymCakxn4Syxnr7-13" style="edgeStyle=orthogonalEdgeStyle;rounded=0;orthogonalLoop=1;jettySize=auto;html=1;exitX=0.019;exitY=0.417;exitDx=0;exitDy=0;entryX=1;entryY=0.5;entryDx=0;entryDy=0;fontSize=15;startArrow=none;startFill=0;endArrow=classic;endFill=1;startSize=15;endSize=10;exitPerimeter=0;" parent="1" source="HQ9hSFymCakxn4Syxnr7-14" target="HQ9hSFymCakxn4Syxnr7-9" edge="1">
          <mxGeometry relative="1" as="geometry" />
        </mxCell>
        <mxCell id="HQ9hSFymCakxn4Syxnr7-14" value="interface" style="rounded=0;whiteSpace=wrap;html=1;fontSize=15;strokeColor=#10739e;fillColor=#b1ddf0;" parent="1" vertex="1">
          <mxGeometry x="770" y="335" width="67" height="60" as="geometry" />
        </mxCell>
        <mxCell id="HQ9hSFymCakxn4Syxnr7-15" value="Legend" style="swimlane;" parent="1" vertex="1">
          <mxGeometry x="80" y="280" width="150" height="240" as="geometry" />
        </mxCell>
        <mxCell id="HQ9hSFymCakxn4Syxnr7-16" value="" style="rounded=0;whiteSpace=wrap;html=1;fillColor=#e1d5e7;strokeColor=#9673a6;" parent="HQ9hSFymCakxn4Syxnr7-15" vertex="1">
          <mxGeometry x="10" y="70" width="10" height="10" as="geometry" />
        </mxCell>
        <mxCell id="HQ9hSFymCakxn4Syxnr7-17" value="PyUVM component" style="text;html=1;align=center;verticalAlign=middle;resizable=0;points=[];autosize=1;strokeColor=none;fillColor=none;" parent="HQ9hSFymCakxn4Syxnr7-15" vertex="1">
          <mxGeometry x="20" y="65" width="120" height="20" as="geometry" />
        </mxCell>
        <mxCell id="HQ9hSFymCakxn4Syxnr7-18" value="" style="rounded=0;whiteSpace=wrap;html=1;fillColor=#d5e8d4;strokeColor=#82b366;" parent="HQ9hSFymCakxn4Syxnr7-15" vertex="1">
          <mxGeometry x="10" y="100" width="10" height="10" as="geometry" />
        </mxCell>
        <mxCell id="HQ9hSFymCakxn4Syxnr7-19" value="PyUVM object" style="text;html=1;align=center;verticalAlign=middle;resizable=0;points=[];autosize=1;strokeColor=none;fillColor=none;" parent="HQ9hSFymCakxn4Syxnr7-15" vertex="1">
          <mxGeometry x="20" y="95" width="90" height="20" as="geometry" />
        </mxCell>
        <mxCell id="HQ9hSFymCakxn4Syxnr7-20" value="" style="rounded=0;whiteSpace=wrap;html=1;fillColor=#b1ddf0;strokeColor=#10739e;" parent="HQ9hSFymCakxn4Syxnr7-15" vertex="1">
          <mxGeometry x="10" y="130" width="10" height="10" as="geometry" />
        </mxCell>
        <mxCell id="HQ9hSFymCakxn4Syxnr7-21" value="SV RTL" style="text;html=1;align=center;verticalAlign=middle;resizable=0;points=[];autosize=1;strokeColor=none;fillColor=none;" parent="HQ9hSFymCakxn4Syxnr7-15" vertex="1">
          <mxGeometry x="20" y="124" width="60" height="20" as="geometry" />
        </mxCell>
        <mxCell id="HQ9hSFymCakxn4Syxnr7-22" value="" style="rounded=0;whiteSpace=wrap;html=1;fillColor=#fad7ac;strokeColor=#b46504;" parent="HQ9hSFymCakxn4Syxnr7-15" vertex="1">
          <mxGeometry x="10" y="40" width="10" height="10" as="geometry" />
        </mxCell>
        <mxCell id="HQ9hSFymCakxn4Syxnr7-23" value="PyUVM UVC" style="text;html=1;align=center;verticalAlign=middle;resizable=0;points=[];autosize=1;strokeColor=none;fillColor=none;" parent="HQ9hSFymCakxn4Syxnr7-15" vertex="1">
          <mxGeometry x="20" y="35" width="90" height="20" as="geometry" />
        </mxCell>
        <mxCell id="HQ9hSFymCakxn4Syxnr7-24" value="&lt;div&gt;&lt;span style=&quot;font-size: 15px&quot;&gt;&amp;lt;Abstract Name&amp;gt; &lt;/span&gt;&lt;font style=&quot;font-size: 11px&quot;&gt;(&amp;lt;Derived from Class&amp;gt;)&lt;/font&gt;&lt;/div&gt;&lt;div&gt;&lt;font style=&quot;font-size: 11px&quot;&gt;(&amp;lt;Class Name&amp;gt;)&lt;/font&gt;&lt;/div&gt;" style="rounded=0;whiteSpace=wrap;html=1;fontSize=11;fillColor=#f5f5f5;fontColor=#333333;strokeColor=#666666;" parent="HQ9hSFymCakxn4Syxnr7-15" vertex="1">
          <mxGeometry x="10" y="160" width="130" height="70" as="geometry" />
        </mxCell>
        <mxCell id="HQ9hSFymCakxn4Syxnr7-25" value="" style="endArrow=classic;startArrow=classic;html=1;rounded=0;" parent="1" edge="1">
          <mxGeometry width="50" height="50" relative="1" as="geometry">
            <mxPoint x="457" y="469.9999999999998" as="sourcePoint" />
            <mxPoint x="497" y="469.9999999999998" as="targetPoint" />
          </mxGeometry>
        </mxCell>
        <mxCell id="HQ9hSFymCakxn4Syxnr7-26" value="" style="endArrow=classic;html=1;rounded=0;endSize=10;" parent="1" edge="1">
          <mxGeometry width="50" height="50" relative="1" as="geometry">
            <mxPoint x="702" y="359.9999999999998" as="sourcePoint" />
            <mxPoint x="632" y="360" as="targetPoint" />
          </mxGeometry>
        </mxCell>
      </root>
    </mxGraphModel>
  </diagram>
  <diagram id="9nYoPY8TfWH-rylzJ7ve" name="sdt_uvc_schematic">
    <mxGraphModel dx="1395" dy="1051" grid="1" gridSize="10" guides="1" tooltips="1" connect="1" arrows="1" fold="1" page="1" pageScale="1" pageWidth="1169" pageHeight="827" math="0" shadow="0">
      <root>
        <mxCell id="nzf2Gj2fXqcgWMONankD-0" />
        <mxCell id="nzf2Gj2fXqcgWMONankD-1" parent="nzf2Gj2fXqcgWMONankD-0" />
        <mxCell id="nzf2Gj2fXqcgWMONankD-2" value="" style="rounded=0;whiteSpace=wrap;html=1;fillColor=#fad7ac;strokeColor=#b46504;" parent="nzf2Gj2fXqcgWMONankD-1" vertex="1">
          <mxGeometry x="283" y="220" width="440" height="339" as="geometry" />
        </mxCell>
        <mxCell id="nzf2Gj2fXqcgWMONankD-3" value="&lt;div style=&quot;text-align: center&quot;&gt;&lt;span style=&quot;font-weight: normal ; font-size: 15px&quot;&gt;SDT Agent&lt;/span&gt;&lt;/div&gt;&lt;span style=&quot;font-size: 11px&quot;&gt;&lt;div style=&quot;text-align: center&quot;&gt;&lt;span style=&quot;font-weight: normal&quot;&gt;(uvm_agent)&lt;/span&gt;&lt;/div&gt;&lt;span&gt;&lt;div style=&quot;text-align: center&quot;&gt;&lt;span style=&quot;font-weight: normal&quot;&gt;(cl_sdt_agent)&lt;/span&gt;&lt;/div&gt;&lt;/span&gt;&lt;/span&gt;" style="text;html=1;strokeColor=none;fillColor=none;align=left;verticalAlign=middle;whiteSpace=wrap;rounded=0;fontStyle=1" parent="nzf2Gj2fXqcgWMONankD-1" vertex="1">
          <mxGeometry x="290" y="230" width="94" height="30" as="geometry" />
        </mxCell>
        <mxCell id="nzf2Gj2fXqcgWMONankD-4" style="edgeStyle=orthogonalEdgeStyle;rounded=0;orthogonalLoop=1;jettySize=auto;html=1;exitX=1.05;exitY=0.496;exitDx=0;exitDy=0;entryX=0;entryY=0.5;entryDx=0;entryDy=0;fontSize=15;startArrow=oval;startFill=0;endArrow=box;endFill=0;startSize=15;endSize=15;exitPerimeter=0;labelBackgroundColor=#FFFFFF;labelBorderColor=none;strokeColor=#000000;" parent="nzf2Gj2fXqcgWMONankD-1" source="nzf2Gj2fXqcgWMONankD-5" target="nzf2Gj2fXqcgWMONankD-8" edge="1">
          <mxGeometry relative="1" as="geometry" />
        </mxCell>
        <mxCell id="nzf2Gj2fXqcgWMONankD-5" value="Agent Sequencer &lt;font style=&quot;font-size: 11px&quot;&gt;(uvm_sequencer)&lt;br&gt;(cl_sdt_sequencer)&lt;/font&gt;" style="rounded=0;whiteSpace=wrap;html=1;fontSize=15;fillColor=#e1d5e7;strokeColor=#9673a6;" parent="nzf2Gj2fXqcgWMONankD-1" vertex="1">
          <mxGeometry x="303" y="420" width="140" height="100" as="geometry" />
        </mxCell>
        <mxCell id="nzf2Gj2fXqcgWMONankD-6" value="Agent Configuration &lt;font style=&quot;font-size: 11px&quot;&gt;(uvm_object)&lt;br&gt;&amp;nbsp;(cl_sdt_agent)&lt;/font&gt;" style="rounded=0;whiteSpace=wrap;html=1;fontSize=15;fillColor=#d5e8d4;strokeColor=#82b366;" parent="nzf2Gj2fXqcgWMONankD-1" vertex="1">
          <mxGeometry x="299.5" y="300" width="147" height="85" as="geometry" />
        </mxCell>
        <mxCell id="nzf2Gj2fXqcgWMONankD-7" style="edgeStyle=orthogonalEdgeStyle;rounded=0;orthogonalLoop=1;jettySize=auto;html=1;exitX=1;exitY=0.5;exitDx=0;exitDy=0;fontSize=15;startArrow=classic;startFill=1;endArrow=classic;endFill=1;startSize=10;endSize=10;entryX=0;entryY=0.75;entryDx=0;entryDy=0;" parent="nzf2Gj2fXqcgWMONankD-1" target="GrGFAi57FmfKk8tMvwQe-0" edge="1">
          <mxGeometry relative="1" as="geometry">
            <mxPoint x="653" y="469.9999999999998" as="sourcePoint" />
            <mxPoint x="770" y="380" as="targetPoint" />
            <Array as="points" />
          </mxGeometry>
        </mxCell>
        <mxCell id="nzf2Gj2fXqcgWMONankD-8" value="Agent Driver &lt;font style=&quot;font-size: 11px&quot;&gt;(uvm_driver)&lt;br&gt;(cl_sdt_driver)&lt;/font&gt;" style="rounded=0;whiteSpace=wrap;html=1;fontSize=15;fillColor=#e1d5e7;strokeColor=#9673a6;" parent="nzf2Gj2fXqcgWMONankD-1" vertex="1">
          <mxGeometry x="513" y="420" width="140" height="100" as="geometry" />
        </mxCell>
        <mxCell id="nzf2Gj2fXqcgWMONankD-9" style="rounded=0;orthogonalLoop=1;jettySize=auto;html=1;exitX=0.5;exitY=0;exitDx=0;exitDy=0;fontSize=15;startArrow=diamond;startFill=0;startSize=15;endSize=15;endArrow=none;endFill=0;fillColor=#f8cecc;strokeColor=#000000;" parent="nzf2Gj2fXqcgWMONankD-1" source="nzf2Gj2fXqcgWMONankD-10" edge="1">
          <mxGeometry relative="1" as="geometry">
            <mxPoint x="557" y="220" as="targetPoint" />
          </mxGeometry>
        </mxCell>
        <mxCell id="nzf2Gj2fXqcgWMONankD-10" value="Agent Monitor &lt;font style=&quot;font-size: 11px&quot;&gt;(uvm_monitor)&lt;br&gt;(cl_sdt_monitor)&lt;/font&gt;" style="rounded=0;whiteSpace=wrap;html=1;fontSize=15;strokeColor=#9673a6;fillColor=#e1d5e7;" parent="nzf2Gj2fXqcgWMONankD-1" vertex="1">
          <mxGeometry x="480" y="250" width="153" height="68" as="geometry" />
        </mxCell>
        <mxCell id="nzf2Gj2fXqcgWMONankD-11" value="" style="endArrow=none;html=1;rounded=0;fontSize=15;startArrow=diamond;startFill=0;endSize=15;startSize=15;fillColor=#f8cecc;strokeColor=#000000;" parent="nzf2Gj2fXqcgWMONankD-1" edge="1">
          <mxGeometry width="50" height="50" relative="1" as="geometry">
            <mxPoint x="556" y="220" as="sourcePoint" />
            <mxPoint x="556" y="180" as="targetPoint" />
          </mxGeometry>
        </mxCell>
        <mxCell id="nzf2Gj2fXqcgWMONankD-12" value="Agent Coverage &lt;font style=&quot;font-size: 11px&quot;&gt;(uvm_subscriber)&lt;br&gt;(cl_sdt_coverage)&lt;/font&gt;" style="rounded=0;whiteSpace=wrap;html=1;fontSize=15;strokeColor=#9673a6;fillColor=#e1d5e7;" parent="nzf2Gj2fXqcgWMONankD-1" vertex="1">
          <mxGeometry x="480" y="330" width="153" height="70" as="geometry" />
        </mxCell>
        <mxCell id="nzf2Gj2fXqcgWMONankD-14" style="edgeStyle=orthogonalEdgeStyle;rounded=0;orthogonalLoop=1;jettySize=auto;html=1;exitX=0;exitY=0.25;exitDx=0;exitDy=0;entryX=1;entryY=0.5;entryDx=0;entryDy=0;fontSize=15;startArrow=none;startFill=0;endArrow=classic;endFill=1;startSize=15;endSize=10;" parent="nzf2Gj2fXqcgWMONankD-1" source="GrGFAi57FmfKk8tMvwQe-0" target="nzf2Gj2fXqcgWMONankD-10" edge="1">
          <mxGeometry relative="1" as="geometry">
            <mxPoint x="771.2729999999999" y="360.02" as="sourcePoint" />
          </mxGeometry>
        </mxCell>
        <mxCell id="nzf2Gj2fXqcgWMONankD-16" value="Legend" style="swimlane;" parent="nzf2Gj2fXqcgWMONankD-1" vertex="1">
          <mxGeometry x="80" y="280" width="150" height="240" as="geometry" />
        </mxCell>
        <mxCell id="nzf2Gj2fXqcgWMONankD-17" value="" style="rounded=0;whiteSpace=wrap;html=1;fillColor=#e1d5e7;strokeColor=#9673a6;" parent="nzf2Gj2fXqcgWMONankD-16" vertex="1">
          <mxGeometry x="10" y="70" width="10" height="10" as="geometry" />
        </mxCell>
        <mxCell id="nzf2Gj2fXqcgWMONankD-18" value="PyUVM component" style="text;html=1;align=center;verticalAlign=middle;resizable=0;points=[];autosize=1;strokeColor=none;fillColor=none;" parent="nzf2Gj2fXqcgWMONankD-16" vertex="1">
          <mxGeometry x="20" y="65" width="120" height="20" as="geometry" />
        </mxCell>
        <mxCell id="nzf2Gj2fXqcgWMONankD-19" value="" style="rounded=0;whiteSpace=wrap;html=1;fillColor=#d5e8d4;strokeColor=#82b366;" parent="nzf2Gj2fXqcgWMONankD-16" vertex="1">
          <mxGeometry x="10" y="100" width="10" height="10" as="geometry" />
        </mxCell>
        <mxCell id="nzf2Gj2fXqcgWMONankD-20" value="PyUVM object" style="text;html=1;align=center;verticalAlign=middle;resizable=0;points=[];autosize=1;strokeColor=none;fillColor=none;" parent="nzf2Gj2fXqcgWMONankD-16" vertex="1">
          <mxGeometry x="20" y="95" width="90" height="20" as="geometry" />
        </mxCell>
        <mxCell id="nzf2Gj2fXqcgWMONankD-21" value="" style="rounded=0;whiteSpace=wrap;html=1;fillColor=#b1ddf0;strokeColor=#10739e;" parent="nzf2Gj2fXqcgWMONankD-16" vertex="1">
          <mxGeometry x="10" y="130" width="10" height="10" as="geometry" />
        </mxCell>
        <mxCell id="nzf2Gj2fXqcgWMONankD-22" value="SV RTL" style="text;html=1;align=center;verticalAlign=middle;resizable=0;points=[];autosize=1;strokeColor=none;fillColor=none;" parent="nzf2Gj2fXqcgWMONankD-16" vertex="1">
          <mxGeometry x="20" y="124" width="60" height="20" as="geometry" />
        </mxCell>
        <mxCell id="nzf2Gj2fXqcgWMONankD-23" value="" style="rounded=0;whiteSpace=wrap;html=1;fillColor=#fad7ac;strokeColor=#b46504;" parent="nzf2Gj2fXqcgWMONankD-16" vertex="1">
          <mxGeometry x="10" y="40" width="10" height="10" as="geometry" />
        </mxCell>
        <mxCell id="nzf2Gj2fXqcgWMONankD-24" value="PyUVM UVC" style="text;html=1;align=center;verticalAlign=middle;resizable=0;points=[];autosize=1;strokeColor=none;fillColor=none;" parent="nzf2Gj2fXqcgWMONankD-16" vertex="1">
          <mxGeometry x="20" y="35" width="90" height="20" as="geometry" />
        </mxCell>
        <mxCell id="nzf2Gj2fXqcgWMONankD-28" value="&lt;div&gt;&lt;span style=&quot;font-size: 15px&quot;&gt;&amp;lt;Abstract Name&amp;gt; &lt;/span&gt;&lt;font style=&quot;font-size: 11px&quot;&gt;(&amp;lt;Derived from Class&amp;gt;)&lt;/font&gt;&lt;/div&gt;&lt;div&gt;&lt;font style=&quot;font-size: 11px&quot;&gt;(&amp;lt;Class Name&amp;gt;)&lt;/font&gt;&lt;/div&gt;" style="rounded=0;whiteSpace=wrap;html=1;fontSize=11;fillColor=#f5f5f5;fontColor=#333333;strokeColor=#666666;" parent="nzf2Gj2fXqcgWMONankD-16" vertex="1">
          <mxGeometry x="10" y="160" width="130" height="70" as="geometry" />
        </mxCell>
        <mxCell id="nzf2Gj2fXqcgWMONankD-25" value="" style="endArrow=classic;startArrow=classic;html=1;rounded=0;" parent="nzf2Gj2fXqcgWMONankD-1" edge="1">
          <mxGeometry width="50" height="50" relative="1" as="geometry">
            <mxPoint x="457" y="469.9999999999998" as="sourcePoint" />
            <mxPoint x="497" y="469.9999999999998" as="targetPoint" />
          </mxGeometry>
        </mxCell>
        <mxCell id="nzf2Gj2fXqcgWMONankD-26" value="" style="endArrow=classic;html=1;rounded=0;endSize=10;" parent="nzf2Gj2fXqcgWMONankD-1" edge="1">
          <mxGeometry width="50" height="50" relative="1" as="geometry">
            <mxPoint x="702" y="359.9999999999998" as="sourcePoint" />
            <mxPoint x="632" y="360" as="targetPoint" />
          </mxGeometry>
        </mxCell>
        <mxCell id="GrGFAi57FmfKk8tMvwQe-0" value="SDT Interface&lt;br&gt;&lt;font style=&quot;font-size: 11px&quot;&gt;(None)&lt;br&gt;(cl_sdt_interface)&lt;/font&gt;" style="rounded=0;whiteSpace=wrap;html=1;fontSize=15;strokeColor=#666666;fillColor=#E8E8E8;" parent="nzf2Gj2fXqcgWMONankD-1" vertex="1">
          <mxGeometry x="753" y="335.5" width="140" height="98" as="geometry" />
        </mxCell>
        <mxCell id="GrGFAi57FmfKk8tMvwQe-1" value="SDT Item&lt;br&gt;&lt;font style=&quot;font-size: 11px&quot;&gt;(uvm_sequence_item)&lt;br&gt;&amp;nbsp;(cl_sdt_seq_item)&lt;/font&gt;" style="rounded=0;whiteSpace=wrap;html=1;fontSize=15;fillColor=#d5e8d4;strokeColor=#82b366;" parent="nzf2Gj2fXqcgWMONankD-1" vertex="1">
          <mxGeometry x="536.25" y="590" width="147" height="85" as="geometry" />
        </mxCell>
        <mxCell id="GrGFAi57FmfKk8tMvwQe-2" value="" style="rounded=0;whiteSpace=wrap;html=1;fontSize=15;fillColor=#d5e8d4;strokeColor=#82b366;" parent="nzf2Gj2fXqcgWMONankD-1" vertex="1">
          <mxGeometry x="322.75" y="580" width="147" height="85" as="geometry" />
        </mxCell>
        <mxCell id="GrGFAi57FmfKk8tMvwQe-3" value="" style="rounded=0;whiteSpace=wrap;html=1;fontSize=15;fillColor=#d5e8d4;strokeColor=#82b366;" parent="nzf2Gj2fXqcgWMONankD-1" vertex="1">
          <mxGeometry x="332.75" y="590" width="147" height="85" as="geometry" />
        </mxCell>
        <mxCell id="GrGFAi57FmfKk8tMvwQe-4" value="SDT Sequence Lib&lt;br&gt;&lt;font style=&quot;font-size: 11px&quot;&gt;(cl_sdt_base_seq)&lt;br&gt;&amp;nbsp;(cl_sdt_single_seq)&lt;/font&gt;" style="rounded=0;whiteSpace=wrap;html=1;fontSize=15;fillColor=#d5e8d4;strokeColor=#82b366;" parent="nzf2Gj2fXqcgWMONankD-1" vertex="1">
          <mxGeometry x="342.75" y="600" width="147" height="85" as="geometry" />
        </mxCell>
      </root>
    </mxGraphModel>
  </diagram>
  <diagram id="x82x6rm-ToSq5dcGeYqB" name="sdt_uvc_v2">
    <mxGraphModel dx="1395" dy="1051" grid="1" gridSize="10" guides="1" tooltips="1" connect="1" arrows="1" fold="1" page="1" pageScale="1" pageWidth="1169" pageHeight="827" math="0" shadow="0">
      <root>
        <mxCell id="bPmGA3--gk11rIqUYLkN-0" />
        <mxCell id="bPmGA3--gk11rIqUYLkN-1" parent="bPmGA3--gk11rIqUYLkN-0" />
        <mxCell id="bPmGA3--gk11rIqUYLkN-2" value="" style="rounded=0;whiteSpace=wrap;html=1;fillColor=#fad7ac;strokeColor=#b46504;fontStyle=0" parent="bPmGA3--gk11rIqUYLkN-1" vertex="1">
          <mxGeometry x="283" y="220" width="440" height="339" as="geometry" />
        </mxCell>
        <mxCell id="bPmGA3--gk11rIqUYLkN-3" value="&lt;div style=&quot;text-align: center&quot;&gt;&lt;span style=&quot;font-size: 15px;&quot;&gt;SDT Agent&lt;/span&gt;&lt;/div&gt;&lt;div style=&quot;text-align: center&quot;&gt;&lt;span style=&quot;&quot;&gt;&lt;font style=&quot;font-size: 12px&quot;&gt;(uvm_agent)&lt;/font&gt;&lt;/span&gt;&lt;/div&gt;" style="text;html=1;strokeColor=none;fillColor=none;align=left;verticalAlign=middle;whiteSpace=wrap;rounded=0;fontStyle=0" parent="bPmGA3--gk11rIqUYLkN-1" vertex="1">
          <mxGeometry x="290" y="230" width="94" height="30" as="geometry" />
        </mxCell>
        <mxCell id="bPmGA3--gk11rIqUYLkN-4" style="edgeStyle=orthogonalEdgeStyle;rounded=0;orthogonalLoop=1;jettySize=auto;html=1;exitX=1.05;exitY=0.496;exitDx=0;exitDy=0;entryX=0;entryY=0.5;entryDx=0;entryDy=0;fontSize=15;startArrow=oval;startFill=0;endArrow=box;endFill=0;startSize=15;endSize=15;exitPerimeter=0;labelBackgroundColor=default;labelBorderColor=none;strokeColor=#000000;fontStyle=0" parent="bPmGA3--gk11rIqUYLkN-1" source="bPmGA3--gk11rIqUYLkN-5" target="bPmGA3--gk11rIqUYLkN-8" edge="1">
          <mxGeometry relative="1" as="geometry" />
        </mxCell>
        <mxCell id="bPmGA3--gk11rIqUYLkN-5" value="Agent Sequencer &lt;font&gt;&lt;font style=&quot;font-size: 12px&quot;&gt;(uvm_sequencer)&lt;/font&gt;&lt;br&gt;&lt;/font&gt;" style="rounded=0;whiteSpace=wrap;html=1;fontSize=15;fillColor=#e1d5e7;strokeColor=#9673a6;fontStyle=0" parent="bPmGA3--gk11rIqUYLkN-1" vertex="1">
          <mxGeometry x="303" y="420" width="140" height="100" as="geometry" />
        </mxCell>
        <mxCell id="bPmGA3--gk11rIqUYLkN-6" value="Agent Configuration &lt;font&gt;&lt;font style=&quot;font-size: 12px&quot;&gt;(uvm_object)&lt;/font&gt;&lt;br&gt;&lt;/font&gt;" style="rounded=0;whiteSpace=wrap;html=1;fontSize=15;fillColor=#d5e8d4;strokeColor=#82b366;fontStyle=0" parent="bPmGA3--gk11rIqUYLkN-1" vertex="1">
          <mxGeometry x="299.5" y="300" width="160.5" height="85" as="geometry" />
        </mxCell>
        <mxCell id="bPmGA3--gk11rIqUYLkN-7" style="edgeStyle=orthogonalEdgeStyle;rounded=0;orthogonalLoop=1;jettySize=auto;html=1;exitX=1;exitY=0.5;exitDx=0;exitDy=0;fontSize=15;startArrow=classic;startFill=1;endArrow=classic;endFill=1;startSize=10;endSize=10;entryX=0;entryY=0.75;entryDx=0;entryDy=0;fontStyle=0" parent="bPmGA3--gk11rIqUYLkN-1" target="bPmGA3--gk11rIqUYLkN-26" edge="1">
          <mxGeometry relative="1" as="geometry">
            <mxPoint x="653" y="469.9999999999998" as="sourcePoint" />
            <mxPoint x="770" y="380" as="targetPoint" />
            <Array as="points" />
          </mxGeometry>
        </mxCell>
        <mxCell id="bPmGA3--gk11rIqUYLkN-8" value="Agent Driver &lt;font&gt;&lt;font style=&quot;font-size: 12px&quot;&gt;(uvm_driver)&lt;/font&gt;&lt;br&gt;&lt;/font&gt;" style="rounded=0;whiteSpace=wrap;html=1;fontSize=15;fillColor=#e1d5e7;strokeColor=#9673a6;fontStyle=0" parent="bPmGA3--gk11rIqUYLkN-1" vertex="1">
          <mxGeometry x="513" y="420" width="140" height="100" as="geometry" />
        </mxCell>
        <mxCell id="bPmGA3--gk11rIqUYLkN-9" style="rounded=0;orthogonalLoop=1;jettySize=auto;html=1;exitX=0.5;exitY=0;exitDx=0;exitDy=0;fontSize=15;startArrow=diamond;startFill=0;startSize=15;endSize=15;endArrow=none;endFill=0;fillColor=#f8cecc;strokeColor=#000000;fontStyle=0" parent="bPmGA3--gk11rIqUYLkN-1" source="bPmGA3--gk11rIqUYLkN-10" edge="1">
          <mxGeometry relative="1" as="geometry">
            <mxPoint x="557" y="220" as="targetPoint" />
          </mxGeometry>
        </mxCell>
        <mxCell id="bPmGA3--gk11rIqUYLkN-10" value="Agent Monitor &lt;font&gt;&lt;font style=&quot;font-size: 12px&quot;&gt;(uvm_monitor)&lt;/font&gt;&lt;br&gt;&lt;/font&gt;" style="rounded=0;whiteSpace=wrap;html=1;fontSize=15;strokeColor=#9673a6;fillColor=#e1d5e7;fontStyle=0" parent="bPmGA3--gk11rIqUYLkN-1" vertex="1">
          <mxGeometry x="480" y="250" width="153" height="68" as="geometry" />
        </mxCell>
        <mxCell id="bPmGA3--gk11rIqUYLkN-11" value="" style="endArrow=none;html=1;rounded=0;fontSize=15;startArrow=diamond;startFill=0;endSize=15;startSize=15;fillColor=#f8cecc;strokeColor=#000000;fontStyle=0" parent="bPmGA3--gk11rIqUYLkN-1" edge="1">
          <mxGeometry width="50" height="50" relative="1" as="geometry">
            <mxPoint x="556" y="220" as="sourcePoint" />
            <mxPoint x="556" y="180" as="targetPoint" />
          </mxGeometry>
        </mxCell>
        <mxCell id="bPmGA3--gk11rIqUYLkN-12" value="Agent Coverage &lt;font&gt;&lt;font style=&quot;font-size: 12px&quot;&gt;(uvm_subscriber)&lt;/font&gt;&lt;br&gt;&lt;/font&gt;" style="rounded=0;whiteSpace=wrap;html=1;fontSize=15;strokeColor=#9673a6;fillColor=#e1d5e7;fontStyle=0" parent="bPmGA3--gk11rIqUYLkN-1" vertex="1">
          <mxGeometry x="480" y="330" width="153" height="70" as="geometry" />
        </mxCell>
        <mxCell id="bPmGA3--gk11rIqUYLkN-13" style="edgeStyle=orthogonalEdgeStyle;rounded=0;orthogonalLoop=1;jettySize=auto;html=1;exitX=0;exitY=0.25;exitDx=0;exitDy=0;entryX=1;entryY=0.5;entryDx=0;entryDy=0;fontSize=15;startArrow=none;startFill=0;endArrow=classic;endFill=1;startSize=15;endSize=10;fontStyle=0" parent="bPmGA3--gk11rIqUYLkN-1" source="bPmGA3--gk11rIqUYLkN-26" target="bPmGA3--gk11rIqUYLkN-10" edge="1">
          <mxGeometry relative="1" as="geometry">
            <mxPoint x="771.2729999999999" y="360.02" as="sourcePoint" />
          </mxGeometry>
        </mxCell>
        <mxCell id="bPmGA3--gk11rIqUYLkN-14" value="Legend" style="swimlane;fontStyle=1;startSize=23;fontSize=16;" parent="bPmGA3--gk11rIqUYLkN-1" vertex="1">
          <mxGeometry x="80" y="264" width="150" height="150" as="geometry" />
        </mxCell>
        <mxCell id="bPmGA3--gk11rIqUYLkN-23" value="&lt;div&gt;&lt;span style=&quot;font-size: 15px&quot;&gt;&amp;lt;Abstract Name&amp;gt; &lt;/span&gt;&lt;font style=&quot;font-size: 11px&quot;&gt;(&amp;lt;Derived from Class&amp;gt;)&lt;/font&gt;&lt;/div&gt;" style="rounded=0;whiteSpace=wrap;html=1;fontSize=11;fillColor=#f5f5f5;fontColor=#333333;strokeColor=#666666;fontStyle=0" parent="bPmGA3--gk11rIqUYLkN-14" vertex="1">
          <mxGeometry x="10" y="66" width="130" height="70" as="geometry" />
        </mxCell>
        <mxCell id="bPmGA3--gk11rIqUYLkN-31" value="&lt;span&gt;Python Class&lt;/span&gt;" style="text;html=1;align=center;verticalAlign=middle;resizable=0;points=[];autosize=1;strokeColor=none;fillColor=none;fontSize=12;fontStyle=0" parent="bPmGA3--gk11rIqUYLkN-14" vertex="1">
          <mxGeometry x="30" y="38" width="90" height="20" as="geometry" />
        </mxCell>
        <mxCell id="bPmGA3--gk11rIqUYLkN-24" value="" style="endArrow=classic;startArrow=classic;html=1;rounded=0;fontStyle=0" parent="bPmGA3--gk11rIqUYLkN-1" edge="1">
          <mxGeometry width="50" height="50" relative="1" as="geometry">
            <mxPoint x="457" y="469.9999999999998" as="sourcePoint" />
            <mxPoint x="497" y="469.9999999999998" as="targetPoint" />
          </mxGeometry>
        </mxCell>
        <mxCell id="bPmGA3--gk11rIqUYLkN-25" value="" style="endArrow=classic;html=1;rounded=0;endSize=10;fontStyle=0" parent="bPmGA3--gk11rIqUYLkN-1" edge="1">
          <mxGeometry width="50" height="50" relative="1" as="geometry">
            <mxPoint x="702" y="359.9999999999998" as="sourcePoint" />
            <mxPoint x="632" y="360" as="targetPoint" />
          </mxGeometry>
        </mxCell>
        <mxCell id="bPmGA3--gk11rIqUYLkN-26" value="SDT Interface&lt;br&gt;&lt;font&gt;&lt;font style=&quot;font-size: 12px&quot;&gt;(None)&lt;/font&gt;&lt;br&gt;&lt;/font&gt;" style="rounded=0;whiteSpace=wrap;html=1;fontSize=15;strokeColor=#666666;fillColor=#E8E8E8;fontStyle=0" parent="bPmGA3--gk11rIqUYLkN-1" vertex="1">
          <mxGeometry x="753" y="335.5" width="140" height="98" as="geometry" />
        </mxCell>
        <mxCell id="bPmGA3--gk11rIqUYLkN-27" value="SDT Item&lt;br&gt;&lt;font&gt;&lt;font style=&quot;font-size: 12px&quot;&gt;(uvm_sequence_item)&lt;/font&gt;&lt;br&gt;&lt;/font&gt;" style="rounded=0;whiteSpace=wrap;html=1;fontSize=15;fillColor=#d5e8d4;strokeColor=#82b366;fontStyle=0" parent="bPmGA3--gk11rIqUYLkN-1" vertex="1">
          <mxGeometry x="536.25" y="590" width="147" height="85" as="geometry" />
        </mxCell>
        <mxCell id="bPmGA3--gk11rIqUYLkN-28" value="" style="rounded=0;whiteSpace=wrap;html=1;fontSize=15;fillColor=#d5e8d4;strokeColor=#82b366;fontStyle=0" parent="bPmGA3--gk11rIqUYLkN-1" vertex="1">
          <mxGeometry x="322.75" y="580" width="147" height="85" as="geometry" />
        </mxCell>
        <mxCell id="bPmGA3--gk11rIqUYLkN-29" value="" style="rounded=0;whiteSpace=wrap;html=1;fontSize=15;fillColor=#d5e8d4;strokeColor=#82b366;fontStyle=0" parent="bPmGA3--gk11rIqUYLkN-1" vertex="1">
          <mxGeometry x="332.75" y="590" width="147" height="85" as="geometry" />
        </mxCell>
        <mxCell id="bPmGA3--gk11rIqUYLkN-30" value="SDT Sequence Lib&lt;br&gt;&lt;font&gt;&lt;font style=&quot;font-size: 12px&quot;&gt;(uvm_sequence)&lt;/font&gt;&lt;br&gt;&lt;/font&gt;" style="rounded=0;whiteSpace=wrap;html=1;fontSize=15;fillColor=#d5e8d4;strokeColor=#82b366;fontStyle=0" parent="bPmGA3--gk11rIqUYLkN-1" vertex="1">
          <mxGeometry x="342.75" y="600" width="147" height="85" as="geometry" />
        </mxCell>
      </root>
    </mxGraphModel>
  </diagram>
  <diagram id="x-MpacvpfjYSmt_XykhA" name="sdt_uvc_v3">
    <mxGraphModel dx="962" dy="725" grid="1" gridSize="4" guides="1" tooltips="1" connect="1" arrows="1" fold="1" page="1" pageScale="1" pageWidth="1169" pageHeight="827" math="0" shadow="0">
      <root>
        <mxCell id="0" />
        <mxCell id="1" parent="0" />
        <mxCell id="Wxy6E_NCNDnAYiZF5Oho-1" value="" style="rounded=0;whiteSpace=wrap;html=1;fillColor=#FAD7AC;strokeColor=#b46504;fontStyle=0" parent="1" vertex="1">
          <mxGeometry x="272" y="224" width="432" height="304" as="geometry" />
        </mxCell>
        <mxCell id="Wxy6E_NCNDnAYiZF5Oho-2" value="&lt;div style=&quot;&quot;&gt;&lt;span style=&quot;font-size: 15px;&quot;&gt;SDT Agent&lt;/span&gt;&lt;/div&gt;&lt;div style=&quot;&quot;&gt;&lt;span style=&quot;&quot;&gt;&lt;font style=&quot;font-size: 12px&quot;&gt;(uvm_agent)&lt;/font&gt;&lt;/span&gt;&lt;/div&gt;" style="text;html=1;strokeColor=none;fillColor=none;align=center;verticalAlign=middle;whiteSpace=wrap;rounded=0;fontStyle=0;spacing=7;" parent="1" vertex="1">
          <mxGeometry x="272" y="224" width="112" height="48" as="geometry" />
        </mxCell>
        <mxCell id="Wxy6E_NCNDnAYiZF5Oho-4" value="Agent Sequencer &lt;font&gt;&lt;font style=&quot;font-size: 12px&quot;&gt;(uvm_sequencer)&lt;/font&gt;&lt;br&gt;&lt;/font&gt;" style="rounded=0;whiteSpace=wrap;html=1;fontSize=15;fillColor=#e1d5e7;strokeColor=#9673a6;fontStyle=0" parent="1" vertex="1">
          <mxGeometry x="288.5" y="432" width="144" height="80" as="geometry" />
        </mxCell>
        <mxCell id="Wxy6E_NCNDnAYiZF5Oho-5" value="Agent Configuration &lt;font&gt;&lt;font style=&quot;font-size: 12px&quot;&gt;(uvm_object)&lt;/font&gt;&lt;br&gt;&lt;/font&gt;" style="rounded=0;whiteSpace=wrap;html=1;fontSize=15;fillColor=#d5e8d4;strokeColor=#82b366;fontStyle=0" parent="1" vertex="1">
          <mxGeometry x="288.5" y="301" width="160.5" height="85" as="geometry" />
        </mxCell>
        <mxCell id="Wxy6E_NCNDnAYiZF5Oho-6" style="edgeStyle=orthogonalEdgeStyle;rounded=0;orthogonalLoop=1;jettySize=auto;html=1;exitX=1;exitY=0.5;exitDx=0;exitDy=0;fontSize=15;startArrow=classic;startFill=1;endArrow=classic;endFill=1;startSize=10;endSize=10;entryX=0;entryY=0.75;entryDx=0;entryDy=0;fontStyle=0" parent="1" source="Wxy6E_NCNDnAYiZF5Oho-7" target="Wxy6E_NCNDnAYiZF5Oho-18" edge="1">
          <mxGeometry relative="1" as="geometry">
            <mxPoint x="642" y="470.9999999999998" as="sourcePoint" />
            <mxPoint x="759" y="381" as="targetPoint" />
            <Array as="points">
              <mxPoint x="688" y="472" />
              <mxPoint x="688" y="412" />
            </Array>
          </mxGeometry>
        </mxCell>
        <mxCell id="Wxy6E_NCNDnAYiZF5Oho-7" value="Agent Driver &lt;font&gt;&lt;font style=&quot;font-size: 12px&quot;&gt;(uvm_driver)&lt;/font&gt;&lt;br&gt;&lt;/font&gt;" style="rounded=0;whiteSpace=wrap;html=1;fontSize=15;fillColor=#e1d5e7;strokeColor=#9673a6;fontStyle=0" parent="1" vertex="1">
          <mxGeometry x="512" y="432" width="144" height="80" as="geometry" />
        </mxCell>
        <mxCell id="Wxy6E_NCNDnAYiZF5Oho-8" style="rounded=0;orthogonalLoop=1;jettySize=auto;html=1;exitX=0.5;exitY=0;exitDx=0;exitDy=0;fontSize=15;startArrow=diamond;startFill=1;startSize=15;endSize=15;endArrow=none;endFill=0;fillColor=#f8cecc;strokeColor=#000000;fontStyle=0" parent="1" source="Wxy6E_NCNDnAYiZF5Oho-9" edge="1">
          <mxGeometry relative="1" as="geometry">
            <mxPoint x="552" y="200" as="targetPoint" />
          </mxGeometry>
        </mxCell>
        <mxCell id="Wxy6E_NCNDnAYiZF5Oho-9" value="Agent Monitor &lt;font&gt;&lt;font style=&quot;font-size: 12px&quot;&gt;(uvm_monitor)&lt;/font&gt;&lt;br&gt;&lt;/font&gt;" style="rounded=0;whiteSpace=wrap;html=1;fontSize=15;strokeColor=#9673a6;fillColor=#e1d5e7;fontStyle=0" parent="1" vertex="1">
          <mxGeometry x="480" y="256" width="144" height="63" as="geometry" />
        </mxCell>
        <mxCell id="Wxy6E_NCNDnAYiZF5Oho-10" value="" style="endArrow=none;html=1;rounded=0;fontSize=15;startArrow=diamond;startFill=1;endSize=15;startSize=15;fillColor=#f8cecc;strokeColor=#000000;fontStyle=0" parent="1" edge="1">
          <mxGeometry width="50" height="50" relative="1" as="geometry">
            <mxPoint x="551.8299999999999" y="208" as="sourcePoint" />
            <mxPoint x="551.8299999999999" y="168" as="targetPoint" />
          </mxGeometry>
        </mxCell>
        <mxCell id="Wxy6E_NCNDnAYiZF5Oho-11" value="Agent Coverage &lt;font&gt;&lt;font style=&quot;font-size: 12px&quot;&gt;(uvm_subscriber)&lt;/font&gt;&lt;br&gt;&lt;/font&gt;" style="rounded=0;whiteSpace=wrap;html=1;fontSize=15;strokeColor=#9673a6;fillColor=#e1d5e7;fontStyle=0" parent="1" vertex="1">
          <mxGeometry x="480" y="340" width="144" height="64" as="geometry" />
        </mxCell>
        <mxCell id="Wxy6E_NCNDnAYiZF5Oho-12" style="edgeStyle=orthogonalEdgeStyle;rounded=0;orthogonalLoop=1;jettySize=auto;html=1;exitX=0;exitY=0.25;exitDx=0;exitDy=0;entryX=1;entryY=0.5;entryDx=0;entryDy=0;fontSize=15;startArrow=none;startFill=0;endArrow=classic;endFill=1;startSize=15;endSize=10;fontStyle=0" parent="1" source="Wxy6E_NCNDnAYiZF5Oho-18" target="Wxy6E_NCNDnAYiZF5Oho-9" edge="1">
          <mxGeometry relative="1" as="geometry">
            <mxPoint x="760.2729999999999" y="361.02" as="sourcePoint" />
          </mxGeometry>
        </mxCell>
        <mxCell id="Wxy6E_NCNDnAYiZF5Oho-13" value="Legend" style="swimlane;fontStyle=1;startSize=23;fontSize=16;swimlaneFillColor=#FFFFFF;" parent="1" vertex="1">
          <mxGeometry x="80" y="304" width="160" height="224" as="geometry" />
        </mxCell>
        <mxCell id="Wxy6E_NCNDnAYiZF5Oho-25" value="" style="group" parent="Wxy6E_NCNDnAYiZF5Oho-13" vertex="1" connectable="0">
          <mxGeometry x="16" y="132" width="128" height="80" as="geometry" />
        </mxCell>
        <mxCell id="Wxy6E_NCNDnAYiZF5Oho-14" value="&lt;div&gt;&lt;font style=&quot;font-size: 14px;&quot;&gt;&amp;lt;Abstract Name&amp;gt;&lt;/font&gt;&lt;/div&gt;" style="rounded=0;whiteSpace=wrap;html=1;fontSize=11;fillColor=#f5f5f5;fontColor=#333333;strokeColor=#666666;fontStyle=0" parent="Wxy6E_NCNDnAYiZF5Oho-25" vertex="1">
          <mxGeometry y="16" width="128" height="64" as="geometry" />
        </mxCell>
        <mxCell id="Wxy6E_NCNDnAYiZF5Oho-24" value="&lt;i style=&quot;font-size: 12px;&quot;&gt;Python &lt;/i&gt;class" style="text;html=1;strokeColor=none;fillColor=none;align=center;verticalAlign=middle;whiteSpace=wrap;rounded=0;fontSize=12;" parent="Wxy6E_NCNDnAYiZF5Oho-25" vertex="1">
          <mxGeometry width="128" height="16" as="geometry" />
        </mxCell>
        <mxCell id="Wxy6E_NCNDnAYiZF5Oho-26" value="" style="group" parent="Wxy6E_NCNDnAYiZF5Oho-13" vertex="1" connectable="0">
          <mxGeometry x="16" y="36" width="128" height="80" as="geometry" />
        </mxCell>
        <mxCell id="Wxy6E_NCNDnAYiZF5Oho-32" value="" style="group" parent="Wxy6E_NCNDnAYiZF5Oho-26" vertex="1" connectable="0">
          <mxGeometry x="1" y="16" width="126" height="64" as="geometry" />
        </mxCell>
        <mxCell id="Wxy6E_NCNDnAYiZF5Oho-29" value="" style="rounded=0;whiteSpace=wrap;html=1;strokeColor=none;fillColor=#fad7ac;" parent="Wxy6E_NCNDnAYiZF5Oho-32" vertex="1">
          <mxGeometry width="42" height="64" as="geometry" />
        </mxCell>
        <mxCell id="Wxy6E_NCNDnAYiZF5Oho-30" value="" style="rounded=0;whiteSpace=wrap;html=1;strokeColor=none;fillColor=#d5e8d4;" parent="Wxy6E_NCNDnAYiZF5Oho-32" vertex="1">
          <mxGeometry x="42" width="42" height="64" as="geometry" />
        </mxCell>
        <mxCell id="Wxy6E_NCNDnAYiZF5Oho-31" value="" style="rounded=0;whiteSpace=wrap;html=1;strokeColor=none;fillColor=#e1d5e7;" parent="Wxy6E_NCNDnAYiZF5Oho-32" vertex="1">
          <mxGeometry x="84" width="42" height="64" as="geometry" />
        </mxCell>
        <mxCell id="Wxy6E_NCNDnAYiZF5Oho-27" value="&lt;div&gt;&lt;font style=&quot;font-size: 14px;&quot;&gt;&amp;lt;Abstract Name&amp;gt;&lt;/font&gt;&lt;span style=&quot;font-size: 15px&quot;&gt; &lt;/span&gt;&lt;font style=&quot;font-size: 12px;&quot;&gt;(&amp;lt;PyUVM base class&amp;gt;)&lt;/font&gt;&lt;/div&gt;" style="rounded=0;whiteSpace=wrap;html=1;fontSize=11;fillColor=none;fontColor=#333333;strokeColor=default;fontStyle=0" parent="Wxy6E_NCNDnAYiZF5Oho-26" vertex="1">
          <mxGeometry y="16" width="128" height="64" as="geometry" />
        </mxCell>
        <mxCell id="Wxy6E_NCNDnAYiZF5Oho-28" value="&lt;i style=&quot;font-size: 12px;&quot;&gt;Python&amp;nbsp;&lt;/i&gt;class" style="text;html=1;strokeColor=none;fillColor=none;align=center;verticalAlign=middle;whiteSpace=wrap;rounded=0;fontSize=12;" parent="Wxy6E_NCNDnAYiZF5Oho-26" vertex="1">
          <mxGeometry width="128" height="16" as="geometry" />
        </mxCell>
        <mxCell id="Wxy6E_NCNDnAYiZF5Oho-17" value="" style="endArrow=classic;html=1;rounded=0;endSize=10;fontStyle=0;entryX=1;entryY=0.5;entryDx=0;entryDy=0;edgeStyle=orthogonalEdgeStyle;exitX=0;exitY=0.25;exitDx=0;exitDy=0;" parent="1" source="Wxy6E_NCNDnAYiZF5Oho-18" target="Wxy6E_NCNDnAYiZF5Oho-11" edge="1">
          <mxGeometry width="50" height="50" relative="1" as="geometry">
            <mxPoint x="691" y="360.9999999999998" as="sourcePoint" />
            <mxPoint x="621" y="361" as="targetPoint" />
          </mxGeometry>
        </mxCell>
        <mxCell id="Wxy6E_NCNDnAYiZF5Oho-18" value="SDT Interface&lt;font&gt;&lt;br&gt;&lt;/font&gt;" style="rounded=0;whiteSpace=wrap;html=1;fontSize=15;strokeColor=#666666;fillColor=#E8E8E8;fontStyle=0" parent="1" vertex="1">
          <mxGeometry x="752" y="352" width="128" height="80" as="geometry" />
        </mxCell>
        <mxCell id="Wxy6E_NCNDnAYiZF5Oho-19" value="SDT Item&lt;br&gt;&lt;font&gt;&lt;font style=&quot;font-size: 12px&quot;&gt;(uvm_sequence_item)&lt;/font&gt;&lt;br&gt;&lt;/font&gt;" style="rounded=0;whiteSpace=wrap;html=1;fontSize=15;fillColor=#d5e8d4;strokeColor=#82b366;fontStyle=0" parent="1" vertex="1">
          <mxGeometry x="518.5" y="554" width="147" height="85" as="geometry" />
        </mxCell>
        <mxCell id="Wxy6E_NCNDnAYiZF5Oho-20" value="" style="rounded=0;whiteSpace=wrap;html=1;fontSize=15;fillColor=#d5e8d4;strokeColor=#82b366;fontStyle=0" parent="1" vertex="1">
          <mxGeometry x="310.5" y="544" width="147" height="85" as="geometry" />
        </mxCell>
        <mxCell id="Wxy6E_NCNDnAYiZF5Oho-21" value="" style="rounded=0;whiteSpace=wrap;html=1;fontSize=15;fillColor=#d5e8d4;strokeColor=#82b366;fontStyle=0" parent="1" vertex="1">
          <mxGeometry x="320.5" y="554" width="147" height="85" as="geometry" />
        </mxCell>
        <mxCell id="Wxy6E_NCNDnAYiZF5Oho-22" value="SDT Sequence Lib&lt;br&gt;&lt;font&gt;&lt;font style=&quot;font-size: 12px&quot;&gt;(uvm_sequence)&lt;/font&gt;&lt;br&gt;&lt;/font&gt;" style="rounded=0;whiteSpace=wrap;html=1;fontSize=15;fillColor=#d5e8d4;strokeColor=#82b366;fontStyle=0" parent="1" vertex="1">
          <mxGeometry x="330.5" y="564" width="147" height="85" as="geometry" />
        </mxCell>
        <mxCell id="GgEhIP197RLDttCCNabd-3" value="" style="group" parent="1" vertex="1" connectable="0">
          <mxGeometry x="440" y="452" width="66" as="geometry" />
        </mxCell>
        <mxCell id="9P7e9wsa7fvnxnNNKj26-2" value="" style="group" parent="GgEhIP197RLDttCCNabd-3" vertex="1" connectable="0">
          <mxGeometry x="6" y="20" width="60" as="geometry" />
        </mxCell>
        <mxCell id="Wxy6E_NCNDnAYiZF5Oho-16" value="" style="endArrow=classic;startArrow=none;html=1;rounded=0;fontStyle=0;startFill=0;" parent="9P7e9wsa7fvnxnNNKj26-2" edge="1">
          <mxGeometry width="50" height="50" relative="1" as="geometry">
            <mxPoint x="60" as="sourcePoint" />
            <mxPoint as="targetPoint" />
          </mxGeometry>
        </mxCell>
        <mxCell id="Wxy6E_NCNDnAYiZF5Oho-35" style="edgeStyle=orthogonalEdgeStyle;rounded=0;orthogonalLoop=1;jettySize=auto;html=1;entryX=0;entryY=0.25;entryDx=0;entryDy=0;fontSize=15;startArrow=oval;startFill=1;endArrow=box;endFill=1;startSize=13;endSize=10;labelBackgroundColor=default;labelBorderColor=none;strokeColor=#000000;fontStyle=0;" parent="1" edge="1">
          <mxGeometry relative="1" as="geometry">
            <mxPoint x="440" y="472" as="sourcePoint" />
            <mxPoint x="512" y="472" as="targetPoint" />
            <Array as="points">
              <mxPoint x="452" y="472" />
              <mxPoint x="452" y="472" />
            </Array>
          </mxGeometry>
        </mxCell>
        <mxCell id="5NF--RiV2HbdaLHONmC--1" value="" style="rounded=0;whiteSpace=wrap;html=1;fillColor=#FAD7AC;strokeColor=#b46504;fontStyle=0" parent="1" vertex="1">
          <mxGeometry x="256" y="960" width="432" height="304" as="geometry" />
        </mxCell>
        <mxCell id="5NF--RiV2HbdaLHONmC--2" value="&lt;div style=&quot;&quot;&gt;&lt;span style=&quot;font-size: 15px;&quot;&gt;SDT Agent&lt;/span&gt;&lt;/div&gt;&lt;div style=&quot;&quot;&gt;&lt;span style=&quot;&quot;&gt;&lt;font style=&quot;font-size: 12px&quot;&gt;(uvm_agent)&lt;/font&gt;&lt;/span&gt;&lt;/div&gt;" style="text;html=1;strokeColor=none;fillColor=none;align=center;verticalAlign=middle;whiteSpace=wrap;rounded=0;fontStyle=0;spacing=7;" parent="1" vertex="1">
          <mxGeometry x="256" y="960" width="112" height="48" as="geometry" />
        </mxCell>
        <mxCell id="5NF--RiV2HbdaLHONmC--3" value="Agent Sequencer &lt;font&gt;&lt;font style=&quot;font-size: 12px&quot;&gt;(uvm_sequencer)&lt;/font&gt;&lt;br&gt;&lt;/font&gt;" style="rounded=0;whiteSpace=wrap;html=1;fontSize=15;fillColor=#e1d5e7;strokeColor=#9673a6;fontStyle=0" parent="1" vertex="1">
          <mxGeometry x="272.5" y="1168" width="144" height="80" as="geometry" />
        </mxCell>
        <mxCell id="5NF--RiV2HbdaLHONmC--4" value="Agent Configuration &lt;font&gt;&lt;font style=&quot;font-size: 12px&quot;&gt;(uvm_object)&lt;/font&gt;&lt;br&gt;&lt;/font&gt;" style="rounded=0;whiteSpace=wrap;html=1;fontSize=15;fillColor=#d5e8d4;strokeColor=#82b366;fontStyle=0" parent="1" vertex="1">
          <mxGeometry x="272.5" y="1037" width="160.5" height="85" as="geometry" />
        </mxCell>
        <mxCell id="5NF--RiV2HbdaLHONmC--5" style="edgeStyle=orthogonalEdgeStyle;rounded=0;orthogonalLoop=1;jettySize=auto;html=1;exitX=1;exitY=0.5;exitDx=0;exitDy=0;fontSize=15;startArrow=classic;startFill=1;endArrow=classic;endFill=1;startSize=10;endSize=10;entryX=0;entryY=0.75;entryDx=0;entryDy=0;fontStyle=0" parent="1" source="5NF--RiV2HbdaLHONmC--6" target="5NF--RiV2HbdaLHONmC--32" edge="1">
          <mxGeometry relative="1" as="geometry">
            <mxPoint x="626" y="1206.9999999999998" as="sourcePoint" />
            <mxPoint x="743" y="1117" as="targetPoint" />
            <Array as="points">
              <mxPoint x="672" y="1208" />
              <mxPoint x="672" y="1148" />
            </Array>
          </mxGeometry>
        </mxCell>
        <mxCell id="5NF--RiV2HbdaLHONmC--6" value="Agent Driver &lt;font&gt;&lt;font style=&quot;font-size: 12px&quot;&gt;(uvm_driver)&lt;/font&gt;&lt;br&gt;&lt;/font&gt;" style="rounded=0;whiteSpace=wrap;html=1;fontSize=15;fillColor=#e1d5e7;strokeColor=#9673a6;fontStyle=0" parent="1" vertex="1">
          <mxGeometry x="496" y="1168" width="144" height="80" as="geometry" />
        </mxCell>
        <mxCell id="5NF--RiV2HbdaLHONmC--7" style="rounded=0;orthogonalLoop=1;jettySize=auto;html=1;exitX=0.5;exitY=0;exitDx=0;exitDy=0;fontSize=15;startArrow=diamond;startFill=1;startSize=15;endSize=15;endArrow=none;endFill=0;fillColor=#f8cecc;strokeColor=#000000;fontStyle=0" parent="1" source="5NF--RiV2HbdaLHONmC--8" edge="1">
          <mxGeometry relative="1" as="geometry">
            <mxPoint x="536" y="936" as="targetPoint" />
          </mxGeometry>
        </mxCell>
        <mxCell id="5NF--RiV2HbdaLHONmC--8" value="Agent Monitor &lt;font&gt;&lt;font style=&quot;font-size: 12px&quot;&gt;(uvm_monitor)&lt;/font&gt;&lt;br&gt;&lt;/font&gt;" style="rounded=0;whiteSpace=wrap;html=1;fontSize=15;strokeColor=#9673a6;fillColor=#e1d5e7;fontStyle=0" parent="1" vertex="1">
          <mxGeometry x="464" y="992" width="144" height="63" as="geometry" />
        </mxCell>
        <mxCell id="5NF--RiV2HbdaLHONmC--9" value="" style="endArrow=none;html=1;rounded=0;fontSize=15;startArrow=diamond;startFill=1;endSize=15;startSize=15;fillColor=#f8cecc;strokeColor=#000000;fontStyle=0" parent="1" edge="1">
          <mxGeometry width="50" height="50" relative="1" as="geometry">
            <mxPoint x="535.8299999999999" y="944" as="sourcePoint" />
            <mxPoint x="535.8299999999999" y="904" as="targetPoint" />
          </mxGeometry>
        </mxCell>
        <mxCell id="5NF--RiV2HbdaLHONmC--10" value="Agent Coverage &lt;font&gt;&lt;font style=&quot;font-size: 12px&quot;&gt;(uvm_subscriber)&lt;/font&gt;&lt;br&gt;&lt;/font&gt;" style="rounded=0;whiteSpace=wrap;html=1;fontSize=15;strokeColor=#9673a6;fillColor=#e1d5e7;fontStyle=0" parent="1" vertex="1">
          <mxGeometry x="464" y="1076" width="144" height="64" as="geometry" />
        </mxCell>
        <mxCell id="5NF--RiV2HbdaLHONmC--11" style="edgeStyle=orthogonalEdgeStyle;rounded=0;orthogonalLoop=1;jettySize=auto;html=1;exitX=0;exitY=0.25;exitDx=0;exitDy=0;entryX=1;entryY=0.5;entryDx=0;entryDy=0;fontSize=15;startArrow=none;startFill=0;endArrow=classic;endFill=1;startSize=15;endSize=10;fontStyle=0" parent="1" source="5NF--RiV2HbdaLHONmC--32" target="5NF--RiV2HbdaLHONmC--8" edge="1">
          <mxGeometry relative="1" as="geometry">
            <mxPoint x="744.2729999999999" y="1097.02" as="sourcePoint" />
          </mxGeometry>
        </mxCell>
        <mxCell id="5NF--RiV2HbdaLHONmC--12" value="Legend" style="swimlane;fontStyle=1;startSize=23;fontSize=16;swimlaneFillColor=#FFFFFF;" parent="1" vertex="1">
          <mxGeometry x="64" y="960" width="160" height="352" as="geometry" />
        </mxCell>
        <mxCell id="5NF--RiV2HbdaLHONmC--13" value="" style="group" parent="5NF--RiV2HbdaLHONmC--12" vertex="1" connectable="0">
          <mxGeometry x="16" y="132" width="128" height="80" as="geometry" />
        </mxCell>
        <mxCell id="5NF--RiV2HbdaLHONmC--14" value="&lt;div&gt;&lt;font style=&quot;font-size: 14px;&quot;&gt;&amp;lt;Abstract Name&amp;gt;&lt;/font&gt;&lt;/div&gt;" style="rounded=0;whiteSpace=wrap;html=1;fontSize=11;fillColor=#f5f5f5;fontColor=#333333;strokeColor=#666666;fontStyle=0" parent="5NF--RiV2HbdaLHONmC--13" vertex="1">
          <mxGeometry y="16" width="128" height="64" as="geometry" />
        </mxCell>
        <mxCell id="5NF--RiV2HbdaLHONmC--15" value="&lt;i style=&quot;font-size: 12px;&quot;&gt;Python &lt;/i&gt;class" style="text;html=1;strokeColor=none;fillColor=none;align=center;verticalAlign=middle;whiteSpace=wrap;rounded=0;fontSize=12;" parent="5NF--RiV2HbdaLHONmC--13" vertex="1">
          <mxGeometry width="128" height="16" as="geometry" />
        </mxCell>
        <mxCell id="5NF--RiV2HbdaLHONmC--16" value="" style="group" parent="5NF--RiV2HbdaLHONmC--12" vertex="1" connectable="0">
          <mxGeometry x="16" y="36" width="128" height="80" as="geometry" />
        </mxCell>
        <mxCell id="5NF--RiV2HbdaLHONmC--17" value="" style="group" parent="5NF--RiV2HbdaLHONmC--16" vertex="1" connectable="0">
          <mxGeometry x="1" y="16" width="126" height="64" as="geometry" />
        </mxCell>
        <mxCell id="5NF--RiV2HbdaLHONmC--18" value="" style="rounded=0;whiteSpace=wrap;html=1;strokeColor=none;fillColor=#fad7ac;" parent="5NF--RiV2HbdaLHONmC--17" vertex="1">
          <mxGeometry width="42" height="64" as="geometry" />
        </mxCell>
        <mxCell id="5NF--RiV2HbdaLHONmC--19" value="" style="rounded=0;whiteSpace=wrap;html=1;strokeColor=none;fillColor=#d5e8d4;" parent="5NF--RiV2HbdaLHONmC--17" vertex="1">
          <mxGeometry x="42" width="42" height="64" as="geometry" />
        </mxCell>
        <mxCell id="5NF--RiV2HbdaLHONmC--20" value="" style="rounded=0;whiteSpace=wrap;html=1;strokeColor=none;fillColor=#e1d5e7;" parent="5NF--RiV2HbdaLHONmC--17" vertex="1">
          <mxGeometry x="84" width="42" height="64" as="geometry" />
        </mxCell>
        <mxCell id="5NF--RiV2HbdaLHONmC--21" value="&lt;div&gt;&lt;font style=&quot;font-size: 14px;&quot;&gt;&amp;lt;Abstract Name&amp;gt;&lt;/font&gt;&lt;span style=&quot;font-size: 15px&quot;&gt; &lt;/span&gt;&lt;font style=&quot;font-size: 12px;&quot;&gt;(&amp;lt;UVM base class&amp;gt;)&lt;/font&gt;&lt;/div&gt;" style="rounded=0;whiteSpace=wrap;html=1;fontSize=11;fillColor=none;fontColor=#333333;strokeColor=default;fontStyle=0" parent="5NF--RiV2HbdaLHONmC--16" vertex="1">
          <mxGeometry y="16" width="128" height="64" as="geometry" />
        </mxCell>
        <mxCell id="5NF--RiV2HbdaLHONmC--22" value="&lt;i style=&quot;font-size: 12px;&quot;&gt;PyUVM&amp;nbsp;&lt;/i&gt;class" style="text;html=1;strokeColor=none;fillColor=none;align=center;verticalAlign=middle;whiteSpace=wrap;rounded=0;fontSize=12;" parent="5NF--RiV2HbdaLHONmC--16" vertex="1">
          <mxGeometry width="128" height="16" as="geometry" />
        </mxCell>
        <mxCell id="5NF--RiV2HbdaLHONmC--23" style="rounded=0;orthogonalLoop=1;jettySize=auto;html=1;startArrow=diamond;startFill=1;startSize=10;endSize=8;fontStyle=0;strokeWidth=0.5;fontSize=12;verticalAlign=top;align=center;spacing=2;endArrow=none;endFill=0;" parent="5NF--RiV2HbdaLHONmC--12" edge="1">
          <mxGeometry relative="1" as="geometry">
            <mxPoint x="48" y="312" as="sourcePoint" />
            <mxPoint x="112" y="312" as="targetPoint" />
          </mxGeometry>
        </mxCell>
        <mxCell id="5NF--RiV2HbdaLHONmC--24" value="Analysis Port" style="edgeLabel;html=1;align=left;verticalAlign=top;resizable=0;points=[];labelBackgroundColor=none;spacing=2;labelPosition=right;verticalLabelPosition=bottom;fontSize=10;" parent="5NF--RiV2HbdaLHONmC--23" vertex="1" connectable="0">
          <mxGeometry x="-0.7621" y="-1" relative="1" as="geometry">
            <mxPoint x="-8" as="offset" />
          </mxGeometry>
        </mxCell>
        <mxCell id="5NF--RiV2HbdaLHONmC--25" style="edgeStyle=orthogonalEdgeStyle;rounded=0;orthogonalLoop=1;jettySize=auto;html=1;fontSize=15;startArrow=none;startFill=0;endArrow=box;endFill=1;startSize=13;endSize=10;labelBackgroundColor=default;labelBorderColor=none;strokeColor=#000000;fontStyle=0;verticalAlign=top;" parent="5NF--RiV2HbdaLHONmC--12" edge="1">
          <mxGeometry relative="1" as="geometry">
            <mxPoint x="112.01" y="276" as="sourcePoint" />
            <mxPoint x="48.010000000000005" y="276.39" as="targetPoint" />
            <Array as="points">
              <mxPoint x="48.010000000000005" y="276" />
            </Array>
          </mxGeometry>
        </mxCell>
        <mxCell id="5NF--RiV2HbdaLHONmC--26" value="Analysis Port" style="edgeLabel;html=1;align=center;verticalAlign=top;resizable=0;points=[];labelBackgroundColor=none;labelPosition=center;verticalLabelPosition=bottom;fontSize=10;" parent="5NF--RiV2HbdaLHONmC--25" vertex="1" connectable="0">
          <mxGeometry x="0.6633" y="2" relative="1" as="geometry">
            <mxPoint x="21" as="offset" />
          </mxGeometry>
        </mxCell>
        <mxCell id="5NF--RiV2HbdaLHONmC--27" value="" style="group" parent="5NF--RiV2HbdaLHONmC--12" vertex="1" connectable="0">
          <mxGeometry x="48" y="236" width="47" height="0.01999999999998181" as="geometry" />
        </mxCell>
        <mxCell id="5NF--RiV2HbdaLHONmC--28" style="edgeStyle=orthogonalEdgeStyle;rounded=0;orthogonalLoop=1;jettySize=auto;html=1;fontSize=15;startArrow=oval;startFill=1;endArrow=none;endFill=0;startSize=13;endSize=10;labelBackgroundColor=default;labelBorderColor=none;strokeColor=#000000;fontStyle=0;" parent="5NF--RiV2HbdaLHONmC--27" edge="1">
          <mxGeometry relative="1" as="geometry">
            <mxPoint x="52.4399999999998" y="0.01999999999998181" as="sourcePoint" />
            <mxPoint x="-2.1316282072803006e-13" y="0.08000000000004093" as="targetPoint" />
            <Array as="points">
              <mxPoint x="41.39999999999979" y="0.01999999999998181" />
              <mxPoint x="41.39999999999979" y="0.01999999999998181" />
            </Array>
          </mxGeometry>
        </mxCell>
        <mxCell id="5NF--RiV2HbdaLHONmC--29" value="Analysis Export" style="edgeLabel;html=1;align=center;verticalAlign=top;resizable=0;points=[];labelBackgroundColor=none;fontColor=default;fontSize=10;" parent="5NF--RiV2HbdaLHONmC--28" vertex="1" connectable="0">
          <mxGeometry x="-0.9434" y="4" relative="1" as="geometry">
            <mxPoint x="-17" as="offset" />
          </mxGeometry>
        </mxCell>
        <mxCell id="5NF--RiV2HbdaLHONmC--30" value="" style="endArrow=classic;html=1;rounded=0;" parent="5NF--RiV2HbdaLHONmC--27" edge="1">
          <mxGeometry width="50" height="50" relative="1" as="geometry">
            <mxPoint as="sourcePoint" />
            <mxPoint x="47" as="targetPoint" />
          </mxGeometry>
        </mxCell>
        <mxCell id="5NF--RiV2HbdaLHONmC--31" value="" style="endArrow=classic;html=1;rounded=0;endSize=10;fontStyle=0;entryX=1;entryY=0.5;entryDx=0;entryDy=0;edgeStyle=orthogonalEdgeStyle;exitX=0;exitY=0.25;exitDx=0;exitDy=0;" parent="1" source="5NF--RiV2HbdaLHONmC--32" target="5NF--RiV2HbdaLHONmC--10" edge="1">
          <mxGeometry width="50" height="50" relative="1" as="geometry">
            <mxPoint x="675" y="1096.9999999999998" as="sourcePoint" />
            <mxPoint x="605" y="1097" as="targetPoint" />
          </mxGeometry>
        </mxCell>
        <mxCell id="5NF--RiV2HbdaLHONmC--32" value="SDT Interface&lt;font&gt;&lt;br&gt;&lt;/font&gt;" style="rounded=0;whiteSpace=wrap;html=1;fontSize=15;strokeColor=#666666;fillColor=#E8E8E8;fontStyle=0" parent="1" vertex="1">
          <mxGeometry x="736" y="1088" width="128" height="80" as="geometry" />
        </mxCell>
        <mxCell id="5NF--RiV2HbdaLHONmC--33" value="SDT Item&lt;br&gt;&lt;font&gt;&lt;font style=&quot;font-size: 12px&quot;&gt;(uvm_sequence_item)&lt;/font&gt;&lt;br&gt;&lt;/font&gt;" style="rounded=0;whiteSpace=wrap;html=1;fontSize=15;fillColor=#d5e8d4;strokeColor=#82b366;fontStyle=0" parent="1" vertex="1">
          <mxGeometry x="502.5" y="1290" width="147" height="85" as="geometry" />
        </mxCell>
        <mxCell id="5NF--RiV2HbdaLHONmC--34" value="" style="rounded=0;whiteSpace=wrap;html=1;fontSize=15;fillColor=#d5e8d4;strokeColor=#82b366;fontStyle=0" parent="1" vertex="1">
          <mxGeometry x="294.5" y="1280" width="147" height="85" as="geometry" />
        </mxCell>
        <mxCell id="5NF--RiV2HbdaLHONmC--35" value="" style="rounded=0;whiteSpace=wrap;html=1;fontSize=15;fillColor=#d5e8d4;strokeColor=#82b366;fontStyle=0" parent="1" vertex="1">
          <mxGeometry x="304.5" y="1290" width="147" height="85" as="geometry" />
        </mxCell>
        <mxCell id="5NF--RiV2HbdaLHONmC--36" value="SDT Sequence Lib&lt;br&gt;&lt;font&gt;&lt;font style=&quot;font-size: 12px&quot;&gt;(uvm_sequence)&lt;/font&gt;&lt;br&gt;&lt;/font&gt;" style="rounded=0;whiteSpace=wrap;html=1;fontSize=15;fillColor=#d5e8d4;strokeColor=#82b366;fontStyle=0" parent="1" vertex="1">
          <mxGeometry x="314.5" y="1300" width="147" height="85" as="geometry" />
        </mxCell>
        <mxCell id="5NF--RiV2HbdaLHONmC--37" value="" style="group" parent="1" vertex="1" connectable="0">
          <mxGeometry x="424" y="1188" width="66" as="geometry" />
        </mxCell>
        <mxCell id="5NF--RiV2HbdaLHONmC--38" value="" style="group" parent="5NF--RiV2HbdaLHONmC--37" vertex="1" connectable="0">
          <mxGeometry x="6" y="20" width="60" as="geometry" />
        </mxCell>
        <mxCell id="5NF--RiV2HbdaLHONmC--39" value="" style="endArrow=classic;startArrow=none;html=1;rounded=0;fontStyle=0;startFill=0;" parent="5NF--RiV2HbdaLHONmC--38" edge="1">
          <mxGeometry width="50" height="50" relative="1" as="geometry">
            <mxPoint x="60" as="sourcePoint" />
            <mxPoint as="targetPoint" />
          </mxGeometry>
        </mxCell>
        <mxCell id="5NF--RiV2HbdaLHONmC--40" style="edgeStyle=orthogonalEdgeStyle;rounded=0;orthogonalLoop=1;jettySize=auto;html=1;entryX=0;entryY=0.25;entryDx=0;entryDy=0;fontSize=15;startArrow=oval;startFill=1;endArrow=box;endFill=1;startSize=13;endSize=10;labelBackgroundColor=default;labelBorderColor=none;strokeColor=#000000;fontStyle=0;" parent="1" edge="1">
          <mxGeometry relative="1" as="geometry">
            <mxPoint x="424" y="1208" as="sourcePoint" />
            <mxPoint x="496" y="1208" as="targetPoint" />
            <Array as="points">
              <mxPoint x="436" y="1208" />
              <mxPoint x="436" y="1208" />
            </Array>
          </mxGeometry>
        </mxCell>
      </root>
    </mxGraphModel>
  </diagram>
</mxfile>
